<?xml version="1.0"?>
<svg id="Ebene_2_Kopie" data-name="Ebene 2 Kopie" xmlns="http://www.w3.org/2000/svg" xmlns:xlink="http://www.w3.org/1999/xlink" viewBox="0 0 856.283 1135.431">
  <defs>
    <linearGradient id="Unbenannter_Verlauf_447" data-name="Unbenannter Verlauf 447" x1="812.221" y1="812.221" x2="44.062" y2="44.062" gradientUnits="userSpaceOnUse">
      <stop offset="0" stop-color="#204a94"></stop>
      <stop offset=".091" stop-color="#204f97"></stop>
      <stop offset=".207" stop-color="#205fa1"></stop>
      <stop offset=".337" stop-color="#2079b2"></stop>
      <stop offset=".476" stop-color="#219ec9"></stop>
      <stop offset=".663" stop-color="#25a5ac"></stop>
      <stop offset=".874" stop-color="#2aac91"></stop>
      <stop offset="1" stop-color="#2caf88"></stop>
    </linearGradient>
  </defs>
  <g>
    <rect width="856.283" height="856.283" rx="150" ry="150" fill="url(#Unbenannter_Verlauf_447)"></rect>
    <g>
      <rect x="267.074" y="127.616" width="436.942" height="478.462" rx="70.972" ry="70.972" transform="translate(21.249 -26.548) rotate(3.202)" fill="#d1e9fa"></rect>
      <path d="M607.335,582.469l-111.675,19.047c-17.034,2.905-33.204,9.642-47.149,19.847-33.792,24.728-70.193,59.342-89.764,78.685-5.754,5.688-15.524,2.118-16.264-5.939-1.696-18.486-4.214-44.636-5.969-57.148-1.293-9.217-11.595-6.323-11.595-6.323-40.954,6.985-79.816-20.552-86.801-61.506l-65.084-381.595c-6.985-40.954,20.552-79.816,61.506-86.801l282.415-48.168c40.954-6.985,79.816,20.552,86.801,61.506l65.084,381.595c6.985,40.954-20.552,79.816-61.506,86.801Z" fill="#fff"></path>
      <path d="M340.606,489.571l-51.995-284.445c-.989-5.408,2.842-10.64,8.557-11.684l32.334-5.91c5.714-1.045,11.148,2.493,12.137,7.901l22.949,125.547,79.524-148.638c2.151-4.02,6.146-6.884,10.789-7.733l42.881-7.838c8.656-1.582,15.215,6.996,11.008,14.397l-78.622,137.995,139.112,133.843c4.869,5.851,1.316,14.643-6.496,16.071l-42.288,7.73c-5.679,1.038-11.418-1.095-14.766-5.487l-104.672-102.75-22.428,39.227,15.004,82.08c.989,5.408-2.842,10.64-8.557,11.684l-32.334,5.91c-5.714,1.045-11.148-2.493-12.137-7.901Z" fill="#232b57"></path>
    </g>
    <g>
      <path d="M60.144,718.725c13.266,6.342,47.975,19.959,97.452,17.533,39.443-1.935,118.021-16.288,156.226-6.295,98.793,25.841,103.454,88.717,103.454,88.717,0,0-40.197-27.596-70.996-37.957-46.333-15.587-113.131-4.655-147.757-3.708-20.999.575-64.057-3.375-83.144-12.149-56.509-25.978-61.205-49.256-61.205-49.256,0,0,2.048,1.239,5.97,3.114Z" fill="#fff"></path>
      <path d="M801.938,718.725c-13.266,6.342-47.975,19.959-97.452,17.533-39.443-1.935-118.021-16.288-156.226-6.295-98.793,25.841-103.454,88.717-103.454,88.717,0,0,40.197-27.596,70.996-37.957,46.333-15.587,113.131-4.655,147.757-3.708,20.999.575,64.057-3.375,83.144-12.149,56.509-25.978,61.205-49.256,61.205-49.256,0,0-2.048,1.239-5.97,3.114Z" fill="#fff"></path>
    </g>
  </g>
  <g>
    <path d="M263.91,1134.725c-13.785,0-25.656-2.573-35.619-7.722-9.963-5.145-17.646-12.453-23.04-21.919-5.397-9.465-8.095-20.674-8.095-33.626,0-12.618,2.616-23.663,7.847-33.128,5.23-9.465,12.454-16.895,21.67-22.293,9.216-5.394,19.717-8.095,31.51-8.095,8.632,0,16.397,1.413,23.289,4.235,6.889,2.826,12.785,6.892,17.685,12.206,4.896,5.316,8.633,11.75,11.209,19.303,2.573,7.559,3.861,16.066,3.861,25.531,0,2.989-1.039,5.274-3.114,6.85-2.078,1.58-5.024,2.366-8.842,2.366h-79.956v-17.934h69.992l-3.985,3.736c0-7.636-1.121-14.03-3.363-19.179-2.241-5.145-5.479-9.092-9.714-11.832-4.235-2.74-9.508-4.11-15.817-4.11-6.974,0-12.914,1.619-17.81,4.857-4.9,3.238-8.636,7.807-11.209,13.7-2.576,5.896-3.861,12.914-3.861,21.047v1.744c0,13.618,3.195,23.787,9.59,30.513,6.39,6.725,15.817,10.088,28.271,10.088,4.315,0,9.173-.537,14.571-1.619,5.394-1.078,10.5-2.946,15.318-5.604,3.488-1.993,6.558-2.864,9.216-2.615,2.654.25,4.771,1.206,6.351,2.865,1.577,1.662,2.53,3.697,2.865,6.103.33,2.409-.124,4.856-1.37,7.347s-3.363,4.651-6.352,6.477c-5.814,3.655-12.497,6.351-20.051,8.095-7.558,1.743-14.571,2.615-21.047,2.615Z" fill="#232b57"></path>
    <path d="M380.478,1134.725c-13.785,0-24.161-3.942-31.135-11.832-6.974-7.885-10.462-19.468-10.462-34.748v-117.816c0-5.144,1.327-9.048,3.985-11.706s6.477-3.986,11.458-3.986,8.842,1.332,11.582,3.986c2.74,2.658,4.11,6.562,4.11,11.706v116.322c0,7.64,1.619,13.287,4.856,16.938,3.239,3.655,7.847,5.48,13.825,5.48,1.327,0,2.573-.039,3.736-.124,1.159-.082,2.323-.207,3.487-.374,2.324-.33,3.9.292,4.733,1.868.829,1.58,1.245,4.776,1.245,9.589,0,4.153-.833,7.391-2.491,9.715-1.662,2.327-4.403,3.736-8.22,4.235-1.662.163-3.406.33-5.231.497-1.829.163-3.655.25-5.48.25Z" fill="#232b57"></path>
    <path d="M433.778,985.524c-5.814,0-10.336-1.452-13.574-4.359-3.239-2.904-4.857-6.932-4.857-12.08,0-5.313,1.619-9.38,4.857-12.206,3.238-2.821,7.76-4.235,13.574-4.235,5.978,0,10.543,1.413,13.7,4.235,3.153,2.826,4.733,6.892,4.733,12.206,0,5.149-1.58,9.176-4.733,12.08-3.156,2.907-7.721,4.359-13.7,4.359Z" fill="#33b4a5"></path>
    <path d="M433.778,1133.978c-4.982,0-8.803-1.495-11.458-4.484-2.658-2.988-3.985-7.138-3.985-12.453v-91.413c0-5.48,1.327-9.672,3.985-12.579,2.654-2.904,6.476-4.359,11.458-4.359s8.842,1.455,11.583,4.359c2.74,2.907,4.109,7.099,4.109,12.579v91.413c0,5.316-1.331,9.465-3.985,12.453-2.658,2.989-6.562,4.484-11.707,4.484Z" fill="#232b57"></path>
    <path d="M497.79,1134.226c-4.982,0-8.804-1.37-11.458-4.11-2.658-2.74-3.985-6.682-3.985-11.832v-94.153c0-5.145,1.327-9.048,3.985-11.706s6.391-3.986,11.209-3.986,8.551,1.332,11.209,3.986c2.654,2.658,3.985,6.561,3.985,11.706v18.183l-2.74-7.473c3.321-8.301,8.469-14.859,15.443-19.677,6.975-4.815,15.277-7.224,24.908-7.224,9.796,0,17.848,2.327,24.162,6.975,6.309,4.65,10.71,11.792,13.2,21.421h-3.488c3.321-8.8,8.8-15.731,16.439-20.798,7.636-5.063,16.441-7.598,26.403-7.598,9.299,0,16.978,1.83,23.041,5.48,6.06,3.655,10.585,9.177,13.575,16.564,2.988,7.391,4.482,16.731,4.482,28.021v60.278c0,5.15-1.37,9.092-4.109,11.832-2.74,2.74-6.6,4.11-11.582,4.11s-8.803-1.37-11.458-4.11c-2.66-2.74-3.987-6.682-3.987-11.832v-59.032c0-9.297-1.537-16.104-4.607-20.424-3.075-4.316-8.263-6.477-15.569-6.477-8.137,0-14.531,2.865-19.179,8.594-4.651,5.729-6.975,13.661-6.975,23.787v53.552c0,5.15-1.331,9.092-3.985,11.832-2.658,2.74-6.476,4.11-11.458,4.11s-8.842-1.37-11.582-4.11c-2.74-2.74-4.109-6.682-4.109-11.832v-59.032c0-9.297-1.539-16.104-4.609-20.424-3.075-4.316-8.181-6.477-15.318-6.477-8.139,0-14.533,2.865-19.181,8.594-4.649,5.729-6.973,13.661-6.973,23.787v53.552c0,10.63-5.231,15.942-15.692,15.942Z" fill="#232b57"></path>
    <path d="M740.396,1134.725c-8.803,0-16.65-1.705-23.539-5.106-6.892-3.402-12.291-8.01-16.191-13.824-3.903-5.811-5.853-12.369-5.853-19.678,0-8.967,2.324-16.065,6.974-21.297,4.647-5.23,12.206-9.006,22.666-11.333,10.462-2.323,24.492-3.487,42.096-3.487h12.453v17.933h-12.205c-10.298,0-18.518.498-24.659,1.495-6.145.996-10.504,2.7-13.077,5.106-2.577,2.409-3.861,5.771-3.861,10.088,0,5.479,1.906,9.963,5.729,13.45,3.818,3.488,9.13,5.231,15.941,5.231,5.48,0,10.337-1.285,14.571-3.862,4.235-2.573,7.597-6.102,10.088-10.585,2.491-4.484,3.736-9.629,3.736-15.443v-28.645c0-8.301-1.829-14.279-5.479-17.933-3.655-3.651-9.8-5.48-18.433-5.48-4.818,0-10.006.584-15.568,1.744-5.565,1.164-11.418,3.156-17.56,5.978-3.156,1.495-5.938,1.911-8.344,1.245-2.409-.662-4.277-2.032-5.604-4.109-1.331-2.075-1.993-4.359-1.993-6.85s.662-4.939,1.993-7.348c1.327-2.406,3.569-4.192,6.725-5.356,7.636-3.152,14.984-5.394,22.044-6.725,7.056-1.327,13.489-1.993,19.304-1.993,11.956,0,21.795,1.83,29.516,5.48,7.721,3.655,13.489,9.177,17.312,16.564,3.818,7.391,5.729,16.899,5.729,28.52v59.779c0,5.15-1.245,9.092-3.736,11.832-2.491,2.74-6.064,4.11-10.71,4.11s-8.263-1.37-10.836-4.11c-2.576-2.74-3.861-6.682-3.861-11.832v-11.956h1.993c-1.164,5.815-3.448,10.836-6.85,15.069-3.405,4.235-7.682,7.516-12.827,9.839-5.149,2.324-11.045,3.488-17.685,3.488Z" fill="#232b57"></path>
    <path d="M45.375,1128.927v-168.367c0-3.201,2.742-5.796,6.124-5.796h19.139c3.382,0,6.124,2.595,6.124,5.796v74.313s61.112-76.81,61.112-76.81c1.653-2.078,4.241-3.299,6.989-3.299h25.382c5.124,0,7.982,5.6,4.798,9.399l-59.481,70.808,65.667,91.227c2.176,3.861-.78,8.525-5.403,8.525h-25.031c-3.361,0-6.425-1.823-7.883-4.689l-49.195-69.812-16.953,20.12v48.584c0,3.201-2.742,5.796-6.124,5.796h-19.139c-3.382,0-6.124-2.595-6.124-5.796Z" fill="#232b57"></path>
  </g>
</svg>